<svg width="25" height="24" viewBox="0 0 25 24" fill="none" xmlns="http://www.w3.org/2000/svg">
<g clip-path="url(#clip0_1181_340)">
<path d="M12.4167 8.02832C11.7846 8.02832 11.1783 8.27944 10.7313 8.72643C10.2843 9.17342 10.0332 9.77967 10.0332 10.4118C10.0332 11.044 10.2843 11.6502 10.7313 12.0972C11.1783 12.5442 11.7846 12.7953 12.4167 12.7953C13.0488 12.7953 13.6551 12.5442 14.1021 12.0972C14.5491 11.6502 14.8002 11.044 14.8002 10.4118C14.8002 9.77967 14.5491 9.17342 14.1021 8.72643C13.6551 8.27944 13.0488 8.02832 12.4167 8.02832Z" fill="white"/>
<path fill-rule="evenodd" clip-rule="evenodd" d="M14.801 3.261H13.212V0.0830078H11.623V3.261H10.034C7.50541 3.261 5.08041 4.26547 3.29244 6.05344C1.50447 7.84141 0.5 10.2664 0.5 12.795C0.5 15.3236 1.50447 17.7486 3.29244 19.5365C5.08041 21.3245 7.50541 22.329 10.034 22.329H14.801C15.0075 22.329 15.2136 22.3221 15.4191 22.3083L21.7592 23.8941C21.8922 23.9273 22.0315 23.9254 22.1636 23.8888C22.2957 23.8521 22.416 23.7819 22.513 23.685C22.6099 23.588 22.6801 23.4677 22.7167 23.3356C22.7534 23.2035 22.7553 23.0642 22.7221 22.9312L21.8053 19.2622C23.0624 17.9006 23.8953 16.2021 24.2024 14.3745C24.5094 12.547 24.2771 10.6695 23.534 8.97186C22.7909 7.2742 21.5691 5.82991 20.0181 4.81566C18.4671 3.80141 16.6542 3.26117 14.801 3.261ZM8.44499 10.4115C8.44499 9.35792 8.86352 8.3475 9.6085 7.60251C10.3535 6.85753 11.3639 6.439 12.4175 6.439C13.4711 6.439 14.4815 6.85753 15.2265 7.60251C15.9714 8.3475 16.39 9.35792 16.39 10.4115C16.39 11.4651 15.9714 12.4755 15.2265 13.2205C14.4815 13.9655 13.4711 14.384 12.4175 14.384C11.3639 14.384 10.3535 13.9655 9.6085 13.2205C8.86352 12.4755 8.44499 11.4651 8.44499 10.4115ZM12.4175 19.151C10.7922 19.1538 9.21486 18.6004 7.94763 17.5826L8.94234 16.3432C9.89415 17.1059 11.1018 17.562 12.4175 17.562C13.7332 17.562 14.9408 17.1059 15.8926 16.3432L16.8873 17.5826C15.6201 18.6004 14.0428 19.1538 12.4175 19.151Z" fill="white"/>
</g>
<defs>
<clipPath id="clip0_1181_340">
<rect width="23.835" height="23.835" fill="white" transform="translate(0.5 0.0830078)"/>
</clipPath>
</defs>
</svg>
