<svg width="70" height="69" viewBox="0 0 70 69" fill="none" xmlns="http://www.w3.org/2000/svg">
<path fill-rule="evenodd" clip-rule="evenodd" d="M26.375 12.9375C27.3377 12.9375 28.1838 13.5757 28.4483 14.5014L30.7862 22.6842C31.8095 26.2658 34.6092 29.0655 38.1908 30.0888L46.3736 32.4267C47.2993 32.6912 47.9375 33.5373 47.9375 34.5C47.9375 35.4627 47.2993 36.3088 46.3736 36.5733L38.1908 38.9112C34.6092 39.9345 31.8095 42.7342 30.7862 46.3158L28.4483 54.4986C28.1838 55.4243 27.3377 56.0625 26.375 56.0625C25.4123 56.0625 24.5662 55.4243 24.3017 54.4986L21.9638 46.3158C20.9405 42.7342 18.1408 39.9345 14.5592 38.9112L6.37638 36.5733C5.4507 36.3088 4.8125 35.4627 4.8125 34.5C4.8125 33.5373 5.4507 32.6912 6.37638 32.4267L14.5592 30.0888C18.1408 29.0655 20.9405 26.2658 21.9638 22.6842L24.3017 14.5014C24.5662 13.5757 25.4123 12.9375 26.375 12.9375Z" fill="white"/>
<path fill-rule="evenodd" clip-rule="evenodd" d="M52.25 4.3125C53.2394 4.3125 54.1019 4.98589 54.3419 5.94578L55.0861 8.92273C55.7621 11.6267 57.8733 13.7379 60.5773 14.4139L63.5542 15.1581C64.5141 15.3981 65.1875 16.2606 65.1875 17.25C65.1875 18.2394 64.5141 19.1019 63.5542 19.3419L60.5773 20.0861C57.8733 20.7621 55.7621 22.8733 55.0861 25.5773L54.3419 28.5542C54.1019 29.5141 53.2394 30.1875 52.25 30.1875C51.2606 30.1875 50.3981 29.5141 50.1581 28.5542L49.4139 25.5773C48.7379 22.8733 46.6267 20.7621 43.9227 20.0861L40.9458 19.3419C39.9859 19.1019 39.3125 18.2394 39.3125 17.25C39.3125 16.2606 39.9859 15.3981 40.9458 15.1581L43.9227 14.4139C46.6267 13.7379 48.7379 11.6267 49.4139 8.92274L50.1581 5.94578C50.3981 4.98589 51.2606 4.3125 52.25 4.3125Z" fill="white"/>
<path fill-rule="evenodd" clip-rule="evenodd" d="M47.9375 43.125C48.8656 43.125 49.6896 43.7189 49.9831 44.5994L51.1166 47.9997C51.5458 49.2875 52.5563 50.298 53.844 50.7272L57.2444 51.8607C58.1249 52.1542 58.7188 52.9781 58.7188 53.9062C58.7188 54.8344 58.1249 55.6583 57.2444 55.9518L53.844 57.0853C52.5563 57.5145 51.5458 58.525 51.1166 59.8128L49.9831 63.2131C49.6896 64.0936 48.8656 64.6875 47.9375 64.6875C47.0094 64.6875 46.1854 64.0936 45.8919 63.2131L44.7584 59.8128C44.3292 58.525 43.3187 57.5145 42.031 57.0853L38.6306 55.9518C37.7501 55.6583 37.1562 54.8344 37.1562 53.9062C37.1562 52.9781 37.7501 52.1542 38.6306 51.8607L42.031 50.7272C43.3187 50.298 44.3292 49.2875 44.7584 47.9997L45.8919 44.5994C46.1854 43.7189 47.0094 43.125 47.9375 43.125Z" fill="white"/>
</svg>
